# xmcd CD database file
#
# Track frame offsets:
#	150
#	59650
#	108565
#	150851
#	166058
#	200993
#	208786
#	216000
#	240498
#
# Disc length: 3503 seconds
#
# Revision: 1
# Processed by: cddbd v1.5PL3 Copyright (c) Steve Scherf et al.
# Submitted via: CDex 1.50
#
DISCID=7d0dad09
DTITLE=Joe Pass - Joe Pass At The Guitar Workshop [CD1 of 2)
DYEAR=1900
DGENRE=Jazz
TTITLE0=The Five Basic Forms
TTITLE1=8th note melodic continuity (8 color tones)
TTITLE2=Georgia On My Mind
TTITLE3=Georgia On My Mind (Analysis)
TTITLE4='Wave' and Discussion
TTITLE5=Fingerstyle or Pick?
TTITLE6=Further Analysis of 'Wave'
TTITLE7=St. Louis Blues (Duet with Bruce Clarke)
TTITLE8=St. Louis Blues (Analysis)
EXTD=
EXTT0=
EXTT1=
EXTT2=
EXTT3=
EXTT4=
EXTT5=
EXTT6=
EXTT7=
EXTT8=
PLAYORDER=
